<svg xmlns="http://www.w3.org/2000/svg" viewBox="0 0 32 32" id="Landscape">
  <g fill="#1a1d24" class="color000000 svgShape">
    <path fill="#f4ce92" d="M27.7,24.375l-5.894-7.367a1,1,0,0,0-1.58.025L18,20l1,2-6.145-8.779a1,1,0,0,0-1.661.032L3.99,24.459A1,1,0,0,0,4.832,26H26.919A1,1,0,0,0,27.7,24.375Z" class="color8ae5d0 svgShape"></path>
    <circle cx="20" cy="9" r="3" fill="#f4ce92" class="color8ae5d0 svgShape"></circle>
    <path fill="#133480" d="M28.481 23.751l-5.893-7.368A2.061 2.061 0 0021 15.633a1.987 1.987 0 00-1.569.8l-1.6 2.139-4.147-5.924A2.022 2.022 0 0012 11.794a2 2 0 00-1.643.918l-7.2 11.206A2 2 0 004.832 27H26.919a2 2 0 001.562-3.249zM4.831 25l7.2-11.206 6.146 8.779a1 1 0 001.638-1.146L19.028 20.3l2-2.664L26.919 25zM20 13a4 4 0 10-4-4A4 4 0 0020 13zm0-6a2 2 0 11-2 2A2 2 0 0120 7z" class="color138072 svgShape"></path>
  </g>
</svg>
