<svg xmlns="http://www.w3.org/2000/svg" xml:space="preserve" id="FacialRecognition" x="0" y="0" version="1.1" viewBox="0 0 64 64" enable-background="new 0 0 64 64">
  <g fill="#1a1d24" class="color000000 svgShape">
    <linearGradient id="SVGID_1_" x1="0" x2="64" y1="32" y2="32" gradientUnits="userSpaceOnUse">
      <stop offset="0" stop-color="#f4ce92" class="stopColor7b47d7 svgShape"></stop>
      <stop offset="1" stop-color="#e6ad52" class="stopColor5282e6 svgShape"></stop>
    </linearGradient>
    <path d="M63.51,50.34h-3.3V18.22c0-1.04-0.85-1.89-1.89-1.89h-7.8V8.43c0-1.29-1.05-2.34-2.34-2.34H15.82
		c-1.29,0-2.34,1.05-2.34,2.34v7.91H5.6c-1.04,0-1.89,0.85-1.89,1.89v32.12H0.49C0.22,50.34,0,50.56,0,50.83v1.24
		c0,3.22,2.62,5.85,5.85,5.85h52.31c3.22,0,5.85-2.62,5.85-5.85v-1.24C64,50.56,63.78,50.34,63.51,50.34z M50.52,17.32h7.8
		c0.51,0,0.91,0.4,0.91,0.91v32.12h-1.81V20.47c0-0.79-0.62-1.41-1.41-1.41h-5.49V17.32z M14.47,8.43c0-0.75,0.61-1.35,1.35-1.35
		h32.35c0.75,0,1.35,0.61,1.35,1.35v3.79H14.47V8.43z M14.47,19.57c0-0.01,0-0.01,0-0.02s0-0.01,0-0.02v-2.69c0-0.01,0-0.01,0-0.02
		s0-0.01,0-0.02v-3.6h35.06v27.58c0,0.75-0.61,1.35-1.35,1.35H15.82c-0.75,0-1.35-0.61-1.35-1.35V19.57z M15.82,43.12h32.35
		c1.29,0,2.34-1.05,2.34-2.34V20.04H56c0.24,0,0.42,0.18,0.42,0.42v29.87H7.58V20.47c0-0.24,0.18-0.42,0.41-0.42h5.49v20.74
		C13.48,42.07,14.53,43.12,15.82,43.12z M4.7,18.22c0-0.5,0.41-0.91,0.91-0.91h7.88v1.74H8c-0.78,0-1.4,0.62-1.4,1.41v29.87H4.7
		V18.22z M63.02,52.07c0,2.68-2.18,4.86-4.86,4.86H5.85c-2.68,0-4.86-2.18-4.86-4.86v-0.74h3.21c0,0,0.01,0,0.01,0s0.01,0,0.01,0
		h2.87c0,0,0.01,0,0.01,0s0.01,0,0.01,0h49.81c0,0,0.01,0,0.01,0s0.01,0,0.01,0h2.78c0,0,0.01,0,0.01,0s0.01,0,0.01,0h3.29V52.07z" fill="url(#SVGID_1_)"></path>
    <linearGradient id="SVGID_2_" x1="16.482" x2="47.514" y1="27.625" y2="27.625" gradientUnits="userSpaceOnUse">
      <stop offset="0" stop-color="#f4ce92" class="stopColor7b47d7 svgShape"></stop>
      <stop offset="1" stop-color="#e6ad52" class="stopColor5282e6 svgShape"></stop>
    </linearGradient>
    <path d="M16.97,40.15h30.05c0.27,0,0.49-0.22,0.49-0.49V15.59c0-0.27-0.22-0.49-0.49-0.49H16.97
		c-0.27,0-0.49,0.22-0.49,0.49v24.06C16.48,39.93,16.7,40.15,16.97,40.15z M17.47,16.08h29.06v23.08H17.47V16.08z" fill="url(#SVGID_2_)"></path>
    <linearGradient id="SVGID_3_" x1="30.617" x2="44.928" y1="25.014" y2="25.014" gradientUnits="userSpaceOnUse">
      <stop offset="0" stop-color="#f4ce92" class="stopColor7b47d7 svgShape"></stop>
      <stop offset="1" stop-color="#e6ad52" class="stopColor5282e6 svgShape"></stop>
    </linearGradient>
    <path d="M44.44,23.19h-0.94c-0.1-0.32-0.23-0.63-0.39-0.94l0.67-0.67c0.19-0.19,0.19-0.5,0-0.7l-1.88-1.88
		c-0.09-0.09-0.22-0.14-0.35-0.14c-0.13,0-0.26,0.05-0.35,0.14l-0.65,0.66c-0.3-0.16-0.62-0.29-0.95-0.4v-0.92
		c0-0.27-0.22-0.49-0.49-0.49h-2.66c-0.27,0-0.49,0.22-0.49,0.49v0.9c-0.33,0.1-0.65,0.24-0.97,0.4l-0.63-0.63
		c-0.18-0.18-0.51-0.18-0.7,0l-1.88,1.88c-0.19,0.19-0.19,0.5,0,0.7l0.62,0.62c-0.17,0.32-0.3,0.65-0.41,0.98h-0.87
		c-0.27,0-0.49,0.22-0.49,0.49v2.66c0,0.27,0.22,0.49,0.49,0.49h0.87c0.11,0.34,0.25,0.67,0.41,0.99l-0.62,0.62
		c-0.19,0.19-0.19,0.5,0,0.7l1.88,1.88c0.19,0.19,0.5,0.19,0.7,0l0.63-0.63c0.32,0.16,0.64,0.3,0.97,0.4v0.89
		c0,0.27,0.22,0.49,0.49,0.49h2.66c0.27,0,0.49-0.22,0.49-0.49v-0.92c0.33-0.11,0.65-0.24,0.95-0.4l0.65,0.65
		c0.19,0.19,0.5,0.19,0.7,0l1.88-1.88c0.19-0.19,0.19-0.5,0-0.7l-0.66-0.66c0.16-0.3,0.29-0.62,0.39-0.94h0.94
		c0.27,0,0.49-0.22,0.49-0.49v-2.66C44.93,23.41,44.71,23.19,44.44,23.19z M43.94,25.85h-0.82c-0.23,0-0.42,0.15-0.48,0.37
		c-0.12,0.48-0.31,0.95-0.57,1.38c-0.12,0.19-0.09,0.44,0.07,0.6l0.58,0.58l-1.18,1.18l-0.57-0.57c-0.16-0.16-0.41-0.19-0.6-0.07
		c-0.43,0.26-0.9,0.46-1.39,0.59c-0.22,0.06-0.37,0.25-0.37,0.48v0.79h-1.67v-0.77c0-0.23-0.16-0.43-0.38-0.48
		c-0.49-0.12-0.96-0.31-1.41-0.58c-0.19-0.12-0.44-0.08-0.6,0.07L34,29.97l-1.18-1.18l0.53-0.54c0.16-0.16,0.19-0.41,0.07-0.6
		c-0.27-0.44-0.47-0.92-0.59-1.42c-0.05-0.22-0.25-0.37-0.48-0.37H31.6v-1.67h0.75c0.23,0,0.42-0.15,0.48-0.37
		c0.12-0.5,0.32-0.98,0.59-1.42c0.12-0.19,0.09-0.44-0.07-0.6l-0.54-0.54L34,20.06l0.55,0.55c0.16,0.16,0.41,0.19,0.6,0.07
		c0.45-0.27,0.92-0.47,1.41-0.58c0.22-0.05,0.38-0.25,0.38-0.48v-0.78h1.67v0.8c0,0.22,0.15,0.42,0.37,0.48
		c0.49,0.13,0.96,0.32,1.39,0.58c0.19,0.12,0.44,0.09,0.6-0.07l0.57-0.57l1.18,1.18l-0.58,0.58c-0.16,0.16-0.19,0.41-0.07,0.6
		c0.26,0.44,0.45,0.9,0.57,1.38c0.05,0.22,0.25,0.37,0.48,0.37h0.82V25.85z" fill="url(#SVGID_3_)"></path>
    <linearGradient id="SVGID_4_" x1="34.405" x2="40.986" y1="25.014" y2="25.014" gradientUnits="userSpaceOnUse">
      <stop offset="0" stop-color="#f4ce92" class="stopColor7b47d7 svgShape"></stop>
      <stop offset="1" stop-color="#e6ad52" class="stopColor5282e6 svgShape"></stop>
    </linearGradient>
    <path d="M37.7,21.72c-1.81,0-3.29,1.48-3.29,3.29c0,1.81,1.48,3.29,3.29,3.29s3.29-1.48,3.29-3.29
		C40.99,23.2,39.51,21.72,37.7,21.72z M37.7,27.32c-1.27,0-2.31-1.03-2.31-2.31c0-1.27,1.03-2.31,2.31-2.31
		c1.27,0,2.31,1.03,2.31,2.31C40,26.29,38.97,27.32,37.7,27.32z" fill="url(#SVGID_4_)"></path>
    <linearGradient id="SVGID_5_" x1="19.149" x2="29.585" y1="33.284" y2="33.284" gradientUnits="userSpaceOnUse">
      <stop offset="0" stop-color="#f4ce92" class="stopColor7b47d7 svgShape"></stop>
      <stop offset="1" stop-color="#e6ad52" class="stopColor5282e6 svgShape"></stop>
    </linearGradient>
    <path d="M24.37,28.85c-1.94,0-5.22,0.38-5.22,1.8v5.32c0,0.13,0.05,0.25,0.14,0.34c1.01,1.03,3.36,1.39,5.18,1.39
		c0.09,0,0.17,0,0.25,0c2.2-0.04,3.98-0.57,4.74-1.41c0.08-0.09,0.13-0.21,0.13-0.33v-2.16c0,0,0,0,0,0v-3.16
		C29.58,29.23,26.3,28.85,24.37,28.85z M20.13,30.69c0.14-0.26,1.54-0.85,4.23-0.85c2.59,0,3.98,0.55,4.21,0.82
		c-0.23,0.27-1.63,0.82-4.21,0.82c-2.7,0-4.09-0.59-4.23-0.78V30.69z M28.6,35.77c-0.65,0.55-2.14,0.93-3.9,0.96
		c-1.99,0.03-3.8-0.36-4.57-0.97v-1.2c1.14,0.43,2.58,0.66,4.07,0.66c1.53,0,3.08-0.24,4.39-0.69V35.77z M28.6,33.48
		c-2.5,0.98-6.33,0.99-8.47,0.02v-1.71c1.12,0.51,2.96,0.68,4.23,0.68c1.27,0,3.11-0.17,4.23-0.68V33.48z" fill="url(#SVGID_5_)"></path>
    <linearGradient id="SVGID_6_" x1="18.965" x2="26.738" y1="20.186" y2="20.186" gradientUnits="userSpaceOnUse">
      <stop offset="0" stop-color="#f4ce92" class="stopColor7b47d7 svgShape"></stop>
      <stop offset="1" stop-color="#e6ad52" class="stopColor5282e6 svgShape"></stop>
    </linearGradient>
    <path d="M19.46,20.68h6.79c0.27,0,0.49-0.22,0.49-0.49s-0.22-0.49-0.49-0.49h-6.79c-0.27,0-0.49,0.22-0.49,0.49
		S19.18,20.68,19.46,20.68z" fill="url(#SVGID_6_)"></path>
    <linearGradient id="SVGID_7_" x1="18.965" x2="24.859" y1="21.994" y2="21.994" gradientUnits="userSpaceOnUse">
      <stop offset="0" stop-color="#f4ce92" class="stopColor7b47d7 svgShape"></stop>
      <stop offset="1" stop-color="#e6ad52" class="stopColor5282e6 svgShape"></stop>
    </linearGradient>
    <path d="M19.46,22.49h4.91c0.27,0,0.49-0.22,0.49-0.49c0-0.27-0.22-0.49-0.49-0.49h-4.91c-0.27,0-0.49,0.22-0.49,0.49
		C18.96,22.27,19.18,22.49,19.46,22.49z" fill="url(#SVGID_7_)"></path>
    <linearGradient id="SVGID_8_" x1="18.965" x2="23.49" y1="23.839" y2="23.839" gradientUnits="userSpaceOnUse">
      <stop offset="0" stop-color="#f4ce92" class="stopColor7b47d7 svgShape"></stop>
      <stop offset="1" stop-color="#e6ad52" class="stopColor5282e6 svgShape"></stop>
    </linearGradient>
    <path d="M23,24.33c0.27,0,0.49-0.22,0.49-0.49c0-0.27-0.22-0.49-0.49-0.49h-3.54c-0.27,0-0.49,0.22-0.49,0.49
		c0,0.27,0.22,0.49,0.49,0.49H23z" fill="url(#SVGID_8_)"></path>
  </g>
</svg>
